<svg width="396" height="134" viewBox="0 0 396 134" fill="none" xmlns="http://www.w3.org/2000/svg">
<path fill-rule="evenodd" clip-rule="evenodd" d="M256.121 115.47H267.352L256.121 133.45L238.066 117.748V47.2223L256.121 38.1111V115.47ZM297.381 115.535H308.612L297.381 133.45L279.326 117.813V62.2953H297.381V115.535ZM165.97 90.9083L133.157 104.076V115.473H160.291L147.67 133.45L114.986 121.802V78.7528L132.778 62.2926H165.97V90.9083ZM149.184 76.2213H133.157V92.6814H149.184V76.2213ZM91.7491 115.47H102.98L91.7491 133.447L73.7017 117.751V76.0944H54.8983V129.396H36.8508V76.0944H18.0555V129.391H0V67.3556L18.0555 58.2417V73.8058L33.9483 58.2417L54.8983 73.8139L70.6754 58.2417L91.7491 73.8139V115.47ZM375.513 115.47H386.747L375.513 133.447L357.466 117.751V76.0944H338.67V129.391H338.662V129.396H320.618V67.3556L338.67 58.2417V73.8058L354.563 58.2417L375.513 73.8139V115.47ZM227.074 81.538H199.445V129.396H181.389V67.3583L199.445 58.2471V77.8568L214.832 58.239L227.074 81.538ZM382.042 58.2417V45.155H384.525L388.955 55.0705H389.176L393.52 45.155H396.003V58.2417H394.099V48.4287H393.924L389.649 58.2417H388.353L384.078 48.4692H383.903V58.2417H382.042ZM373.544 58.2417V46.9821H369.391V45.155H379.758V46.9821H375.543V58.2417H373.544Z" fill="#F7F3FF"/>
<path d="M292.946 23.6146H285.102V31.4844H292.946V23.6146Z" fill="#875FDC"/>
<g opacity="0.4">
<path d="M300.793 31.4846H292.949V39.3544H300.793V31.4846Z" fill="#875FDC"/>
</g>
<g opacity="0.72">
<path d="M292.946 15.7421H285.102V23.6119H292.946V15.7421Z" fill="#875FDC"/>
</g>
<g opacity="0.72">
<path d="M300.793 23.6146H292.949V31.4844H300.793V23.6146Z" fill="#875FDC"/>
</g>
<g opacity="0.72">
<path d="M285.102 23.6146H277.258V31.4844H285.102V23.6146Z" fill="#875FDC"/>
</g>
<g opacity="0.72">
<path d="M292.946 31.4846H285.102V39.3544H292.946V31.4846Z" fill="#875FDC"/>
</g>
<g opacity="0.4">
<path d="M285.102 31.4846H277.258V39.3544H285.102V31.4846Z" fill="#875FDC"/>
</g>
<g opacity="0.4">
<path d="M285.102 15.7421H277.258V23.6119H285.102V15.7421Z" fill="#875FDC"/>
</g>
<g opacity="0.4">
<path d="M300.793 15.7421H292.949V23.6119H300.793V15.7421Z" fill="#875FDC"/>
</g>
<g opacity="0.4">
<path d="M292.946 7.87238H285.102V15.7422H292.946V7.87238Z" fill="#875FDC"/>
</g>
<g opacity="0.4">
<path d="M292.946 39.3543H285.102V47.2241H292.946V39.3543Z" fill="#875FDC"/>
</g>
<g opacity="0.4">
<path d="M324.328 39.3543H316.484V47.2241H324.328V39.3543Z" fill="#875FDC"/>
</g>
<g opacity="0.4">
<path d="M316.484 7.87238H308.64V15.7422H316.484V7.87238Z" fill="#875FDC"/>
</g>
<g opacity="0.4">
<path d="M332.172 7.87238H324.328V15.7422H332.172V7.87238Z" fill="#875FDC"/>
</g>
<g opacity="0.4">
<path d="M308.637 23.6146H300.793V31.4844H308.637V23.6146Z" fill="#875FDC"/>
</g>
<g opacity="0.4">
<path d="M277.258 23.6146H269.414V31.4844H277.258V23.6146Z" fill="#875FDC"/>
</g>
<g opacity="0.4">
<path d="M324.328 15.7421H316.484V23.6119H324.328V15.7421Z" fill="#875FDC"/>
</g>
<g opacity="0.4">
<path d="M324.328 0H316.484V7.86975H324.328V0Z" fill="#875FDC"/>
</g>
<g opacity="0.72">
<path d="M324.328 7.89941H316.484V15.7692H324.328V7.89941Z" fill="#875FDC"/>
</g>
</svg>
