<svg width="25" height="25" viewBox="0 0 25 25" fill="none" xmlns="http://www.w3.org/2000/svg">
<path opacity="0.4" d="M3.75 15H9.48047C11.1094 16.6289 12.1172 17.6367 12.5 18.0195L15.5195 15H21.25V21.25H3.75V15ZM17.1875 18.125C17.1875 18.3736 17.2863 18.6121 17.4621 18.7879C17.6379 18.9637 17.8764 19.0625 18.125 19.0625C18.3736 19.0625 18.6121 18.9637 18.7879 18.7879C18.9637 18.6121 19.0625 18.3736 19.0625 18.125C19.0625 17.8764 18.9637 17.6379 18.7879 17.4621C18.6121 17.2863 18.3736 17.1875 18.125 17.1875C17.8764 17.1875 17.6379 17.2863 17.4621 17.4621C17.2863 17.6379 17.1875 17.8764 17.1875 18.125Z" fill="#875FDC"/>
<path d="M13.75 2.5V13.2305C14.9492 12.0313 15.7813 11.1992 16.25 10.7305L18.0195 12.5L12.5 18.0195C12.3867 17.9062 10.8438 16.3633 7.86719 13.3867L6.98047 12.5L8.75 10.7305C9.21875 11.1992 10.0508 12.0313 11.25 13.2305V2.5H13.75Z" fill="#875FDC"/>
</svg>
