<svg width="25" height="25" viewBox="0 0 25 25" fill="none" xmlns="http://www.w3.org/2000/svg">
<path opacity="0.4" d="M3.75 15H11.25V17.5H13.75V15H21.25V21.25H3.75V15ZM17.1875 18.125C17.1875 18.3736 17.2863 18.6121 17.4621 18.7879C17.6379 18.9637 17.8764 19.0625 18.125 19.0625C18.3736 19.0625 18.6121 18.9637 18.7879 18.7879C18.9637 18.6121 19.0625 18.3736 19.0625 18.125C19.0625 17.8764 18.9637 17.6379 18.7879 17.4621C18.6121 17.2863 18.3736 17.1875 18.125 17.1875C17.8764 17.1875 17.6379 17.2863 17.4621 17.4621C17.2863 17.6379 17.1875 17.8764 17.1875 18.125Z" fill="#875FDC"/>
<path d="M13.75 17.5V6.76953C14.9492 7.96875 15.7812 8.80078 16.25 9.26953L18.0195 7.5C17.9062 7.38672 16.3633 5.84375 13.3867 2.86719L12.5 1.98047C12.3867 2.09375 10.8437 3.63672 7.86719 6.61328L6.98438 7.49609L8.75391 9.26562L11.2539 6.76562V17.4961H13.7539L13.75 17.5Z" fill="#875FDC"/>
</svg>
