<svg width="240" height="240" viewBox="0 0 240 240" fill="none" xmlns="http://www.w3.org/2000/svg">
<g clip-path="url(#clip0_2186_18)">
<path d="M89.5805 119.998H59.496V150.083H89.5805V119.998Z" fill="#875FDC"/>
<g opacity="0.4">
<path d="M119.665 150.083H89.5805V180.164H119.665V150.083Z" fill="#875FDC"/>
</g>
<g opacity="0.72">
<path d="M89.5805 89.9135H59.496V119.998H89.5805V89.9135Z" fill="#875FDC"/>
</g>
<g opacity="0.72">
<path d="M119.665 119.998H89.5805V150.083H119.665V119.998Z" fill="#875FDC"/>
</g>
<g opacity="0.72">
<path d="M59.496 119.998H29.4114V150.083H59.496V119.998Z" fill="#875FDC"/>
</g>
<g opacity="0.72">
<path d="M89.5805 150.083H59.496V180.164H89.5805V150.083Z" fill="#875FDC"/>
</g>
<g opacity="0.4">
<path d="M59.496 150.083H29.4114V180.164H59.496V150.083Z" fill="#875FDC"/>
</g>
<g opacity="0.4">
<path d="M59.496 89.9135H29.4114V119.998H59.496V89.9135Z" fill="#875FDC"/>
</g>
<g opacity="0.4">
<path d="M119.665 89.9135H89.5805V119.998H119.665V89.9135Z" fill="#875FDC"/>
</g>
<g opacity="0.4">
<path d="M89.5805 59.8287H59.496V89.9133H89.5805V59.8287Z" fill="#875FDC"/>
</g>
<g opacity="0.4">
<path d="M89.5805 180.164H59.496V210.249H89.5805V180.164Z" fill="#875FDC"/>
</g>
<g opacity="0.4">
<path d="M209.915 180.164H179.831V210.249H209.915V180.164Z" fill="#875FDC"/>
</g>
<g opacity="0.4">
<path d="M179.831 59.8287H149.75V89.9133H179.831V59.8287Z" fill="#875FDC"/>
</g>
<g opacity="0.4">
<path d="M240 59.8287H209.915V89.9133H240V59.8287Z" fill="#875FDC"/>
</g>
<g opacity="0.4">
<path d="M149.75 119.998H119.665V150.083H149.75V119.998Z" fill="#875FDC"/>
</g>
<g opacity="0.4">
<path d="M29.4114 119.998H-0.669998V150.083H29.4114V119.998Z" fill="#875FDC"/>
</g>
<g opacity="0.4">
<path d="M209.915 89.9135H179.831V119.998H209.915V89.9135Z" fill="#875FDC"/>
</g>
<g opacity="0.4">
<path d="M209.915 29.7478H179.831V59.8292H209.915V29.7478Z" fill="#875FDC"/>
</g>
<g opacity="0.72">
<path d="M209.915 59.9346H179.831V90.016H209.915V59.9346Z" fill="#875FDC"/>
</g>
</g>
<defs>
<clipPath id="clip0_2186_18">
<rect width="240" height="240" fill="white"/>
</clipPath>
</defs>
</svg>
