<svg width="15" height="15" viewBox="0 0 15 15" fill="none" xmlns="http://www.w3.org/2000/svg">
<path opacity="0.4" d="M1.50039 9V13.5H3.00039V11.5617L3.1293 11.6906C4.28945 12.8484 5.86211 13.5 7.50039 13.5C10.8145 13.5 13.5004 10.8141 13.5004 7.5H12.0004C12.0004 9.98438 9.98477 12 7.50039 12C6.2582 12 5.06758 11.5055 4.18867 10.6289L4.05977 10.5H5.99805V9H1.49805H1.50039Z" fill="#875FDC"/>
<path d="M3 7.5C3 5.01562 5.01562 3 7.5 3C8.74219 3 9.93281 3.49219 10.8117 4.37109L10.9406 4.5H9.00234V6H13.5023V1.5H12.0023V3.43828L11.8734 3.30937C10.7109 2.15156 9.14062 1.5 7.5 1.5C4.18594 1.5 1.5 4.18594 1.5 7.5H3Z" fill="#875FDC"/>
</svg>
